<?xml version="1.0" encoding="UTF-8"?>
<svg xmlns="http://www.w3.org/2000/svg" viewBox="0 0 24 24"><path d="M20.82 8.59a3.56 3.56 0 0 0-.72-1.69 2.66 2.66 0 0 0-1.8-.73C15.78 6 12 6 12 6s-3.78 0-6.3.17a2.69 2.69 0 0 0-1.81.73 3.51 3.51 0 0 0-.71 1.69A24.46 24.46 0 0 0 3 11.35v1.29a24.75 24.75 0 0 0 .18 2.77 3.6 3.6 0 0 0 .72 1.69 3.13 3.13 0 0 0 2 .73C7.32 18 12 18 12 18s3.78 0 6.3-.18a2.63 2.63 0 0 0 1.8-.72 3.6 3.6 0 0 0 .72-1.69 24.52 24.52 0 0 0 .18-2.77v-1.29a24.46 24.46 0 0 0-.18-2.76zm-10.68 5.62V9.42l4.86 2.4z" style="fill: #ffffff;"/></svg>
